<?xml version="1.0" encoding="UTF-8" standalone="no"?><!DOCTYPE svg PUBLIC "-//W3C//DTD SVG 1.1//EN" "http://www.w3.org/Graphics/SVG/1.1/DTD/svg11.dtd"><svg width="100%" height="100%" viewBox="0 0 250 80" version="1.1" xmlns="http://www.w3.org/2000/svg" xmlns:xlink="http://www.w3.org/1999/xlink" xml:space="preserve" xmlns:serif="http://www.serif.com/" style="fill-rule:evenodd;clip-rule:evenodd;stroke-linejoin:round;stroke-miterlimit:2;"><path d="M53,13.25l-15.9,36.6l-15.8,-36.6l-7.4,0l23.2,53.5l23.2,-53.5l-7.3,0Z" style="fill:#37bde2;fill-rule:nonzero;"/><path d="M107.4,23.95l21.1,0l0,5l-15.4,0l0,8.1l14.6,0l0,4.7l-14.6,0l0,9l16.2,0l0,5.1l-21.9,0l0,-31.9Zm33.5,0l11,0c1.5,0 3,0.2 4.4,0.5c1.4,0.3 2.7,0.8 3.8,1.6c1.1,0.7 2,1.7 2.6,2.8c0.7,1.2 1,2.6 1,4.3c0,2.3 -0.7,4.2 -2,5.6c-1.3,1.5 -3.1,2.4 -5.3,2.9l8.5,14.1l-6.8,0l-7.4,-13.5l-4.1,0l0,13.5l-5.7,0l0,-31.8Zm10.3,13.8c0.8,0 1.6,-0.1 2.4,-0.2c0.8,-0.1 1.5,-0.3 2.2,-0.7c0.6,-0.3 1.2,-0.8 1.6,-1.4c0.4,-0.6 0.6,-1.4 0.6,-2.4c0,-0.9 -0.2,-1.6 -0.6,-2.1c-0.4,-0.6 -0.9,-1 -1.5,-1.3c-0.6,-0.3 -1.3,-0.6 -2,-0.7c-0.8,-0.1 -1.5,-0.2 -2.2,-0.2l-5.1,0l0,9l4.6,0Zm51,16.4c-1.6,0.8 -3.4,1.4 -5.3,1.8c-1.9,0.4 -4.2,0.7 -6.7,0.7c-2.6,0 -4.9,-0.4 -7.1,-1.2c-2.1,-0.8 -4,-2 -5.5,-3.5c-1.5,-1.5 -2.7,-3.3 -3.6,-5.3c-0.9,-2.1 -1.3,-4.3 -1.3,-6.8c0,-2.5 0.4,-4.9 1.3,-6.9c0.9,-2.1 2.1,-3.8 3.6,-5.2c1.5,-1.4 3.4,-2.5 5.5,-3.3c2.1,-0.8 4.4,-1.2 6.8,-1.2c2.5,0 4.9,0.4 7,1.1c2.1,0.7 3.8,1.7 5.1,2.9l-3.9,4.2c-0.8,-0.9 -1.9,-1.7 -3.4,-2.3c-1.5,-0.6 -3,-0.9 -4.7,-0.9c-1.7,0 -3.2,0.3 -4.6,0.9c-1.4,0.6 -2.5,1.4 -3.5,2.5c-1,1.1 -1.7,2.3 -2.2,3.7c-0.5,1.4 -0.8,2.9 -0.8,4.6c0,1.7 0.3,3.3 0.8,4.7c0.5,1.4 1.3,2.7 2.2,3.7c1,1.1 2.2,1.9 3.6,2.5c1.4,0.6 3,0.9 4.7,0.9c2.4,0 4.5,-0.4 6.3,-1.1l0,-8.1l-6.7,0l0,-4.7l12.2,0l0,16.3l0.2,0Zm12,-30.2l21.1,0l0,5l-15.4,0l0,8.1l14.6,0l0,4.7l-14.6,0l0,9l16.2,0l0,5.1l-21.9,0l0,-31.9Zm-145,0l14.2,32.1l14.8,-32.1l-6.5,0l-8,18.1l-8,-18.1l-6.5,0Z" style="fill:#01182D;fill-rule:nonzero;"/><path d="M37.1,32.95l8.3,-19.7l-16.6,0l8.3,19.7Z" style="fill:#37bde2;fill-rule:nonzero;"/></svg>
