<?xml version="1.0" encoding="UTF-8" standalone="no"?><!DOCTYPE svg PUBLIC "-//W3C//DTD SVG 1.1//EN" "http://www.w3.org/Graphics/SVG/1.1/DTD/svg11.dtd"><svg width="100%" height="100%" viewBox="0 0 15 15" version="1.1" xmlns="http://www.w3.org/2000/svg" xmlns:xlink="http://www.w3.org/1999/xlink" xml:space="preserve" xmlns:serif="http://www.serif.com/" style="fill-rule:evenodd;clip-rule:evenodd;stroke-linejoin:round;stroke-miterlimit:2;"><path d="M1.48,2.469c-0.546,0 -0.988,0.441 -0.988,0.984l0,6.91c-0.176,-0.004 -0.344,0.09 -0.433,0.242c-0.086,0.157 -0.086,0.344 0,0.5c0.089,0.153 0.257,0.247 0.433,0.243l1.508,0c0.121,0.832 0.836,1.48 1.699,1.48c0.864,0 1.582,-0.648 1.703,-1.48l4.493,0c0.121,0.832 0.835,1.48 1.699,1.48c0.863,0 1.582,-0.648 1.703,-1.48l1.012,0c0.179,0.004 0.343,-0.09 0.433,-0.243c0.09,-0.156 0.09,-0.343 0,-0.5c-0.09,-0.152 -0.254,-0.246 -0.433,-0.242l0,-2.468l-2.961,0l0,-1.973c0,-0.274 0.222,-0.496 0.496,-0.496l1.41,0l-0.168,-0.387c-0.156,-0.363 -0.512,-0.598 -0.91,-0.598l-3.293,0l0,-0.988c0,-0.543 -0.442,-0.984 -0.988,-0.984l-6.415,0Zm2.219,7.894c0.414,0 0.742,0.325 0.742,0.739c0,0.414 -0.328,0.742 -0.742,0.742c-0.414,0 -0.738,-0.328 -0.738,-0.742c0,-0.414 0.324,-0.739 0.738,-0.739Zm7.895,0c0.418,0 0.742,0.325 0.742,0.739c0,0.414 -0.324,0.742 -0.742,0.742c-0.414,0 -0.739,-0.328 -0.739,-0.742c0,-0.414 0.325,-0.739 0.739,-0.739Z" style="fill:#969696;fill-rule:nonzero;"/></svg>