<?xml version="1.0" encoding="UTF-8" standalone="no"?><!DOCTYPE svg PUBLIC "-//W3C//DTD SVG 1.1//EN" "http://www.w3.org/Graphics/SVG/1.1/DTD/svg11.dtd"><svg width="100%" height="100%" viewBox="0 0 15 15" version="1.1" xmlns="http://www.w3.org/2000/svg" xmlns:xlink="http://www.w3.org/1999/xlink" xml:space="preserve" xmlns:serif="http://www.serif.com/" style="fill-rule:evenodd;clip-rule:evenodd;stroke-linejoin:round;stroke-miterlimit:2;"><circle cx="7.5" cy="7.5" r="7.5" style="fill:#008570;"/><path d="M7.51,9.959c0.105,0 0.207,-0.043 0.281,-0.121l4.082,-4.082c0.106,-0.101 0.149,-0.254 0.113,-0.398c-0.039,-0.145 -0.148,-0.254 -0.293,-0.293c-0.144,-0.039 -0.296,0.004 -0.398,0.113l-3.793,3.793l-3.793,-3.793c-0.102,-0.106 -0.254,-0.148 -0.398,-0.113c-0.145,0.039 -0.254,0.148 -0.293,0.293c-0.039,0.144 0.004,0.297 0.113,0.398l4.082,4.082c0.078,0.078 0.184,0.121 0.297,0.121Z" style="fill:#fff;fill-rule:nonzero;"/></svg>