<?xml version="1.0" encoding="UTF-8" standalone="no"?><!DOCTYPE svg PUBLIC "-//W3C//DTD SVG 1.1//EN" "http://www.w3.org/Graphics/SVG/1.1/DTD/svg11.dtd"><svg width="100%" height="100%" viewBox="0 0 15 15" version="1.1" xmlns="http://www.w3.org/2000/svg" xmlns:xlink="http://www.w3.org/1999/xlink" xml:space="preserve" xmlns:serif="http://www.serif.com/" style="fill-rule:evenodd;clip-rule:evenodd;stroke-linejoin:round;stroke-miterlimit:2;"><path d="M8.647,0.582c-0.206,-0.004 -0.398,0.105 -0.508,0.288c-0.1,0.178 -0.1,0.397 0,0.58c0.11,0.178 0.302,0.288 0.508,0.288c2.556,0 4.616,2.058 4.616,4.611c-0.005,0.211 0.105,0.403 0.288,0.508c0.177,0.105 0.397,0.105 0.579,0c0.178,-0.105 0.288,-0.297 0.288,-0.508c0,-3.178 -2.589,-5.767 -5.771,-5.767Zm0,2.306c-0.206,0 -0.398,0.105 -0.508,0.288c-0.1,0.179 -0.1,0.402 0,0.579c0.11,0.184 0.302,0.288 0.508,0.288c1.282,0 2.31,1.028 2.31,2.306c-0.005,0.211 0.105,0.403 0.283,0.508c0.183,0.105 0.402,0.105 0.584,0c0.179,-0.105 0.289,-0.297 0.284,-0.508c0,-1.904 -1.557,-3.461 -3.461,-3.461Zm-6.923,0.575c-0.232,0 -0.443,0.138 -0.529,0.347c-0.096,0.211 -0.051,0.457 0.108,0.626c-1.282,2.584 -0.858,5.804 1.298,7.959c2.155,2.161 5.375,2.585 7.963,1.301c0.146,0.151 0.366,0.211 0.572,0.156c0.201,-0.06 0.36,-0.219 0.405,-0.429c0.046,-0.201 -0.022,-0.421 -0.178,-0.558l-9.229,-9.228c-0.108,-0.114 -0.254,-0.174 -0.41,-0.174Zm6.923,1.731c-0.635,0 -1.152,0.516 -1.152,1.155c0,0.64 0.517,1.155 1.152,1.155c0.639,0 1.155,-0.515 1.155,-1.155c0,-0.639 -0.516,-1.155 -1.155,-1.155Z" style="fill:#959595;fill-rule:nonzero;"/></svg>