<?xml version="1.0" encoding="UTF-8" standalone="no"?><!DOCTYPE svg PUBLIC "-//W3C//DTD SVG 1.1//EN" "http://www.w3.org/Graphics/SVG/1.1/DTD/svg11.dtd"><svg width="100%" height="100%" viewBox="0 0 15 15" version="1.1" xmlns="http://www.w3.org/2000/svg" xmlns:xlink="http://www.w3.org/1999/xlink" xml:space="preserve" xmlns:serif="http://www.serif.com/" style="fill-rule:evenodd;clip-rule:evenodd;stroke-linejoin:round;stroke-miterlimit:2;"><path d="M3.748,1.072c-0.025,0 -0.054,0.004 -0.08,0.007l-0.982,0c-0.196,-0.003 -0.373,0.098 -0.471,0.268c-0.096,0.165 -0.096,0.368 0,0.538c0.098,0.165 0.275,0.267 0.471,0.267l0.533,0l0,1.066c0,2.47 1.665,3.775 2.389,4.283c-0.724,0.504 -2.389,1.813 -2.389,4.278l0,1.072l-0.533,0c-0.196,-0.005 -0.373,0.097 -0.471,0.266c-0.096,0.165 -0.096,0.369 0,0.538c0.098,0.165 0.275,0.267 0.471,0.267l0.978,0c0.059,0.009 0.119,0.009 0.173,0l7.32,0c0.059,0.009 0.114,0.009 0.174,0l0.987,0c0.191,0 0.369,-0.102 0.469,-0.267c0.094,-0.169 0.094,-0.373 0,-0.538c-0.1,-0.169 -0.278,-0.271 -0.469,-0.266l-0.538,0l0,-1.072c0,-2.465 -1.664,-3.774 -2.389,-4.278c0.725,-0.508 2.389,-1.813 2.389,-4.283l0,-1.066l0.538,0c0.191,0 0.369,-0.102 0.469,-0.267c0.094,-0.17 0.094,-0.373 0,-0.538c-0.1,-0.17 -0.278,-0.271 -0.469,-0.268l-0.987,0c-0.035,-0.003 -0.064,-0.007 -0.093,-0.007c-0.026,0 -0.051,0.004 -0.077,0.007l-7.324,0c-0.029,-0.003 -0.058,-0.007 -0.089,-0.007Zm0.542,2.146l6.422,0c0,2.318 -2.418,3.822 -2.418,3.822c-0.162,0.096 -0.258,0.271 -0.258,0.461c0,0.186 0.096,0.36 0.258,0.457c0,0 2.418,1.504 2.418,3.821l-1.071,0c0,-1.182 -0.958,-2.139 -2.14,-2.139c-1.185,0 -2.142,0.957 -2.142,2.139l-1.069,0c0,-2.317 2.415,-3.821 2.415,-3.821c0.161,-0.097 0.258,-0.271 0.258,-0.457c0,-0.19 -0.097,-0.365 -0.258,-0.461c0,0 -2.415,-1.504 -2.415,-3.822Zm1.873,1.606c0,0.741 0.598,1.338 1.338,1.338c0.738,0 1.339,-0.597 1.339,-1.338l-2.677,0Z" style="fill:#969696;fill-rule:nonzero;"/></svg>