<svg viewBox="0 0 165 38" xmlns="http://www.w3.org/2000/svg" fill-rule="evenodd" clip-rule="evenodd" stroke-linejoin="round" stroke-miterlimit="2"><g fill="#d4d4d4" fill-rule="nonzero"><path d="M55.609 26.096c1.195 0 1.886-.727 1.886-1.992v-8.825h.094l3.75 9.305c.305.797.844 1.16 1.664 1.16s1.324-.363 1.641-1.16l3.762-9.305h.082v8.825c0 1.265.691 1.992 1.886 1.992 1.207 0 1.899-.727 1.899-1.992V11.459c0-1.781-1.008-2.789-2.778-2.789-1.511 0-2.32.609-2.941 2.191l-3.516 8.93h-.093l-3.528-8.93c-.609-1.582-1.418-2.191-2.918-2.191-1.781 0-2.789 1.019-2.789 2.789v12.645c0 1.265.692 1.992 1.899 1.992zM77.171 30.537c3.141 0 4.84-1.336 6.07-4.816l3.516-9.797c.141-.399.246-.914.246-1.266 0-1.078-.832-1.851-2.027-1.851-1.067 0-1.688.515-2.016 1.664l-2.39 8.25h-.071l-2.39-8.203c-.34-1.243-.903-1.711-2.016-1.711-1.23 0-2.168.82-2.168 1.933 0 .352.094.832.258 1.254l3.89 10.371-.105.246c-.375.563-.973.703-1.477.703-.199 0-.351-.011-.55-.011-.914 0-1.489.504-1.489 1.324 0 1.23.961 1.91 2.719 1.91zM94.878 26.002c.668 0 1.02-.258 1.289-.961l5.684-14.777c.082-.223.129-.422.129-.586 0-.528-.446-.914-1.067-.914-.515 0-.797.211-.996.75l-5.004 13.758h-.07L89.839 9.514c-.187-.516-.504-.75-1.008-.75-.633 0-1.054.363-1.054.914 0 .164.035.351.129.586l5.671 14.765c.27.703.633.973 1.301.973zM107.241 26.049c2.227 0 3.938-.938 4.723-2.59.094-.223.152-.434.152-.598 0-.539-.363-.89-.902-.89-.316 0-.551.117-.762.41-.949 1.383-1.839 1.898-3.293 1.898-2.179 0-3.527-1.523-3.527-3.984h7.617c.703 0 1.125-.445 1.125-1.184 0-3.339-2.191-5.672-5.308-5.672-3.364 0-5.532 2.508-5.532 6.352 0 3.938 2.11 6.258 5.707 6.258zm-3.597-7.348c.129-2.097 1.488-3.492 3.387-3.492 1.886 0 3.187 1.383 3.234 3.492h-6.621zM115.445 26.049c.597 0 1.019-.445 1.019-1.09v-6.691c0-1.559.785-2.883 2.625-2.883.445 0 .762-.082.973-.258.211-.164.316-.398.316-.715 0-.281-.082-.515-.258-.68-.199-.187-.515-.293-.961-.293-1.218 0-2.414.938-2.765 2.204h-.047v-1.172c0-.61-.399-1.032-.961-1.032-.563 0-.961.422-.961 1.032v10.488c0 .645.422 1.09 1.02 1.09zM126.156 30.432c3.468.035 5.625-1.934 5.625-4.84V14.494c0-.633-.434-1.055-1.02-1.055-.586 0-1.02.422-1.02 1.055v1.16h-.035c-.808-1.371-2.156-2.215-3.879-2.215-3.152 0-5.191 2.438-5.191 6.258 0 3.785 2.039 6.235 5.145 6.235 1.71 0 3.164-.868 3.914-2.192h.046v1.922c0 1.817-1.324 3.07-3.503 3.035-1.243-.023-2.098-.468-3.141-1.617-.316-.351-.516-.469-.856-.469-.539 0-.914.364-.914.879 0 .27.071.504.235.762.855 1.348 2.554 2.156 4.594 2.18zm.035-6.293c-2.098 0-3.469-1.711-3.469-4.442 0-2.73 1.371-4.465 3.469-4.465 2.121 0 3.55 1.782 3.55 4.465 0 2.684-1.429 4.442-3.55 4.442zM135.542 11.6c.703 0 1.278-.575 1.278-1.266 0-.703-.575-1.266-1.278-1.266-.691 0-1.265.563-1.265 1.266 0 .691.574 1.266 1.265 1.266zm0 14.449c.598 0 1.02-.445 1.02-1.09v-10.43c0-.644-.422-1.09-1.02-1.09-.597 0-1.019.446-1.019 1.09v10.43c0 .645.422 1.09 1.019 1.09zM144.425 26.049c2.227 0 3.938-.938 4.723-2.59.093-.223.152-.434.152-.598 0-.539-.363-.89-.902-.89-.317 0-.551.117-.762.41-.949 1.383-1.84 1.898-3.293 1.898-2.18 0-3.527-1.523-3.527-3.984h7.617c.703 0 1.125-.445 1.125-1.184 0-3.339-2.192-5.672-5.309-5.672-3.363 0-5.531 2.508-5.531 6.352 0 3.938 2.109 6.258 5.707 6.258zm-3.598-7.348c.129-2.097 1.489-3.492 3.387-3.492 1.887 0 3.188 1.383 3.234 3.492h-6.621zM155.839 26.049c2.895 0 4.852-1.465 4.852-3.645 0-1.793-.938-2.683-3.481-3.304l-1.816-.446c-1.336-.328-1.992-.914-1.992-1.757 0-1.043 1.019-1.782 2.484-1.782 1.242 0 2.027.446 2.555 1.465.222.422.504.551.902.551.492 0 .797-.317.797-.797 0-.094-.012-.187-.035-.305-.317-1.465-2.098-2.59-4.102-2.59-2.754 0-4.617 1.442-4.617 3.563 0 1.711 1.137 2.824 3.492 3.41l1.863.469c1.372.34 1.875.808 1.875 1.687 0 1.137-1.054 1.817-2.613 1.817-1.558 0-2.285-.481-2.894-1.547-.235-.422-.528-.609-.891-.609-.527 0-.926.304-.926.843 0 .153.024.305.094.481.586 1.523 2.285 2.496 4.453 2.496z"/></g><path d="M13.093 8.094V3.588c0-1.387.837-2.412 1.868-2.288l26.68 3.202c1.031.124 1.868 1.35 1.868 2.737V27.34c0 1.387-.837 2.412-1.868 2.289l-6.258-.752V13.282c-.001-.192-.016-.383-.048-.573-.026-.152-.062-.304-.108-.451-.036-.115-.078-.228-.127-.338-.039-.089-.082-.177-.13-.262-.037-.066-.077-.131-.119-.195-.036-.054-.074-.107-.114-.158-.249-.32-.58-.59-.973-.708-.081-.024-.165-.041-.249-.052L13.093 8.094z" fill="#b9b9b9"/><path d="M34.416 13.6c0-1.386-.837-2.613-1.868-2.736L5.868 7.661C4.837 7.537 4 8.563 4 9.949V30.05c0 1.387.837 2.614 1.868 2.737l26.68 3.203c1.031.124 1.868-.902 1.868-2.289V13.6zM13.093 29.037c0-.191-.153-.365-.341-.387l-6.314-.758c-.188-.023-.341.114-.341.305v.692c0 .191.153.364.341.387l6.314.758c.188.022.341-.115.341-.305v-.692zm4.437-2.017c0-.191-.153-.365-.341-.387L6.438 25.342c-.188-.022-.341.114-.341.305v.692c0 .191.153.364.341.387l10.751 1.29c.188.023.341-.114.341-.305v-.691z" fill="#d4d4d4"/></svg>