<svg viewBox="0 0 409 472" xmlns="http://www.w3.org/2000/svg" fill-rule="evenodd" clip-rule="evenodd" stroke-linejoin="round" stroke-miterlimit="2"><path d="M505.318 298.057C471.048 435.48 331.86 519.115 194.421 484.845 57.045 450.583-26.59 311.388 7.68 173.972 41.926 36.532 181.113-47.11 318.513-12.849 455.945 21.413 539.571 160.625 505.31 298.057h.008z" fill-opacity=".25"/><path d="M385.767 202.293c5.399-36.148-22.124-55.58-59.757-68.544l12.208-48.966-29.798-7.429-11.885 47.677c-7.844-1.953-15.892-3.795-23.889-5.62l11.97-47.991-29.79-7.428-12.216 48.95c-6.486-1.477-12.853-2.937-19.033-4.474l.034-.153-41.106-10.264-7.929 31.836s22.115 5.068 21.648 5.382c12.072 3.014 14.262 11.002 13.889 17.335l-13.906 55.784c.832.212 1.91.518 3.099.993l-3.141-.781-19.501 78.145c-1.477 3.668-5.221 9.169-13.659 7.081.297.433-21.665-5.408-21.665-5.408l-14.797 34.119 38.797 9.669c7.216 1.808 14.279 3.702 21.24 5.484l-12.335 49.527 29.772 7.429 12.225-49.001c8.124 2.207 16.02 4.245 23.745 6.163l-12.174 48.772 29.806 7.428 12.335-49.434c50.826 9.619 89.054 5.739 105.133-40.231 12.963-37.014-.645-58.365-27.387-72.287 19.475-4.491 34.145-17.302 38.058-43.763h.009zm-68.119 95.497c-9.211 37.014-71.532 17.004-91.737 11.987l16.368-65.614c20.205 5.042 84.996 15.026 75.369 53.627zm9.219-96.032c-8.404 33.669-60.274 16.563-77.1 12.369l14.839-59.511c16.826 4.194 71.014 12.021 62.261 47.142z" fill-opacity=".7"/></svg>
