<?xml version="1.0" encoding="UTF-8" standalone="no"?><!DOCTYPE svg PUBLIC "-//W3C//DTD SVG 1.1//EN" "http://www.w3.org/Graphics/SVG/1.1/DTD/svg11.dtd"><svg width="100%" height="100%" viewBox="0 0 15 15" version="1.1" xmlns="http://www.w3.org/2000/svg" xmlns:xlink="http://www.w3.org/1999/xlink" xml:space="preserve" xmlns:serif="http://www.serif.com/" style="fill-rule:evenodd;clip-rule:evenodd;stroke-linejoin:round;stroke-miterlimit:2;"><path d="M7.5,15c-4.141,0 -7.5,-3.359 -7.5,-7.5c0,-4.141 3.359,-7.5 7.5,-7.5c4.141,0 7.5,3.359 7.5,7.5c0,4.141 -3.359,7.5 -7.5,7.5Z" style="fill:#ff5252;fill-rule:nonzero;"/><path d="M11.578,9.94c-0.109,-0.004 -0.211,-0.047 -0.285,-0.125l-3.793,-3.793l-3.793,3.793c-0.078,0.078 -0.184,0.125 -0.293,0.125c-0.168,0 -0.316,-0.102 -0.379,-0.254c-0.062,-0.152 -0.027,-0.332 0.094,-0.445l4.082,-4.082c0.16,-0.16 0.418,-0.16 0.578,0l4.082,4.082c0.121,0.117 0.16,0.297 0.094,0.453c-0.067,0.156 -0.219,0.254 -0.387,0.25l0,-0.004Z" style="fill:#fff;fill-rule:nonzero;"/></svg>