<svg xmlns="http://www.w3.org/2000/svg" width="30" height="30" viewBox="0 0 30 30">
    <style>.a{fill:#fff;}</style>
    <circle cx="14.46" cy="14.46" r="12.46" fill="#797979"/>
    <path d="M12.4 5.22c-0.38 0.01-0.68 0.32-0.67 0.7 0 1.02-0.87 2.13-1.92 3.52 -1.04 1.39-2.19 3.09-2.19 5.37 0 2.91 1.81 5.38 4.36 6.37l-0.47 1.42c-0.09 0.29 0.2 0.55 0.48 0.41l0.87-0.44 0 0.79c0 0.3 0.37 0.45 0.58 0.24l1.02-1.03 1.02 1.03c0.22 0.22 0.59 0.06 0.59-0.24l0-0.79 0.87 0.44c0.27 0.14 0.57-0.12 0.48-0.41l-0.47-1.42c2.55-0.99 4.36-3.46 4.36-6.37 0-2.28-1.15-3.98-2.19-5.37 -1.04-1.39-1.92-2.5-1.92-3.52 0-0.25-0.12-0.48-0.34-0.6 -0.21-0.12-0.48-0.12-0.69 0 -0.21 0.12-0.34 0.35-0.34 0.6 0 1.71 1.18 3 2.19 4.34 1.01 1.35 1.92 2.72 1.92 4.55 0 3.05-2.42 5.47-5.47 5.47 -3.05 0-5.47-2.42-5.47-5.47 0-1.82 0.91-3.2 1.92-4.55 1.01-1.35 2.19-2.63 2.19-4.34 0-0.18-0.07-0.36-0.2-0.5 -0.13-0.13-0.31-0.2-0.49-0.2Z"
          class="a"/>
    <path d="M14.42 7.8c-0.28 0.02-0.53 0.2-0.61 0.47 -0.28 0.84-1.1 1.93-1.88 3.03 -0.78 1.1-1.58 2.23-1.58 3.51 0 2.27 1.83 4.1 4.1 4.1 2.27 0 4.1-1.83 4.1-4.1 0-1.28-0.8-2.4-1.58-3.51 -0.78-1.1-1.59-2.19-1.88-3.03 -0.09-0.29-0.38-0.48-0.68-0.47Zm0.03 2.17c0.43 0.73 0.93 1.44 1.41 2.12 0.76 1.07 1.33 2.09 1.33 2.72 0 1.56-1.18 2.74-2.74 2.74 -1.56 0-2.73-1.18-2.73-2.74 0-0.63 0.57-1.65 1.33-2.72 0.48-0.68 0.98-1.39 1.41-2.12Z"
          class="a"/>
    <path d="M14.46 12.21c-0.48 0.62-1.37 1.85-1.37 2.6 0 0.75 0.61 1.37 1.37 1.37 0.76 0 1.37-0.61 1.37-1.37 0-0.75-0.96-2.05-1.37-2.6Z"
          class="a"/>
    <circle cx="22.83" cy="22.83" r="5.17" fill="#00e577"/>
    <path d="M22.92 15.49l0.09 0 0.09 0 0.09 0 0.09 0.01 0.09 0.01 0.09 0.01 0.09 0.01 0.09 0.01 0.09 0.01 0.09 0.01 0.09 0.01 0.09 0.02 0.09 0.02 0.09 0.02 0.09 0.02 0.09 0.02 0.09 0.02 0.09 0.02 0.09 0.02 0.09 0.02 0.09 0.02 0.09 0.03 0.09 0.03 0.09 0.03 0.09 0.03 0.09 0.03 0.09 0.03 0.08 0.03 0.08 0.03 0.08 0.03 0.08 0.03 0.08 0.04 0.08 0.04 0.08 0.04 0.08 0.04 0.08 0.04 0.08 0.04 0.08 0.04 0.08 0.04 0.08 0.04 0.08 0.04 0.08 0.05 0.08 0.05 0.08 0.05 0.08 0.05 0.14 0.09 0.14 0.1 0.14 0.1 0.14 0.11 0.14 0.11 0.13 0.11 0.13 0.12 0.13 0.12 0.13 0.12 0.12 0.13 0.12 0.13 0.12 0.13 0.11 0.14 0.11 0.14 0.11 0.14 0.1 0.14 0.1 0.14 0.09 0.14 0.05 0.08 0.05 0.08 0.05 0.08 0.05 0.08 0.04 0.08 0.04 0.08 0.04 0.08 0.04 0.08 0.04 0.08 0.04 0.08 0.04 0.08 0.04 0.08 0.04 0.08 0.04 0.08 0.03 0.08 0.03 0.08 0.03 0.08 0.03 0.08 0.03 0.08 0.03 0.09 0.03 0.09 0.03 0.09 0.03 0.09 0.03 0.09 0.02 0.09 0.02 0.09 0.02 0.09 0.02 0.09 0.02 0.09 0.02 0.09 0.02 0.09 0.02 0.09 0.02 0.09 0.01 0.09 0.01 0.09 0.01 0.09 0.01 0.09 0.01 0.09 0.01 0.09 0.01 0.09 0.01 0.09 0.01 0.09 0 0.09 0 0.09 0 0.09 0 0.09 0 0.1 0 0.09 0 0.09 0 0.09 0 0.09 -0.01 0.09 -0.01 0.09 -0.01 0.09 -0.01 0.09 -0.01 0.09 -0.01 0.09 -0.01 0.09 -0.01 0.09 -0.02 0.09 -0.02 0.09 -0.02 0.09 -0.02 0.09 -0.02 0.09 -0.02 0.09 -0.02 0.09 -0.02 0.09 -0.02 0.09 -0.02 0.09 -0.03 0.09 -0.03 0.09 -0.03 0.09 -0.03 0.09 -0.03 0.09 -0.03 0.08 -0.03 0.08 -0.03 0.08 -0.03 0.08 -0.04 0.08 -0.04 0.08 -0.04 0.08 -0.04 0.08 -0.04 0.08 -0.04 0.08 -0.04 0.08 -0.04 0.08 -0.04 0.08 -0.04 0.08 -0.04 0.08 -0.05 0.08 -0.05 0.08 -0.05 0.08 -0.09 0.14 -0.1 0.14 -0.1 0.14 -0.11 0.14 -0.11 0.14 -0.11 0.13 -0.12 0.13 -0.12 0.13 -0.12 0.13 -0.13 0.12 -0.13 0.12 -0.13 0.12 -0.13 0.11 -0.14 0.11 -0.14 0.11 -0.14 0.1 -0.14 0.1 -0.14 0.09 -0.08 0.05 -0.07 0.05 -0.08 0.05 -0.08 0.05 -0.08 0.04 -0.08 0.04 -0.08 0.04 -0.08 0.04 -0.08 0.04 -0.08 0.04 -0.08 0.04 -0.08 0.04 -0.08 0.04 -0.08 0.04 -0.08 0.03 -0.08 0.03 -0.08 0.03 -0.08 0.03 -0.08 0.03 -0.08 0.03 -0.09 0.03 -0.09 0.03 -0.09 0.03 -0.09 0.03 -0.09 0.02 -0.09 0.02 -0.09 0.02 -0.09 0.02 -0.09 0.02 -0.09 0.02 -0.09 0.02 -0.09 0.02 -0.09 0.02 -0.09 0.01 -0.09 0.01 -0.09 0.01 -0.09 0.01 -0.09 0.01 -0.09 0.01 -0.09 0.01 -0.09 0.01 -0.09 0.01 -0.09 0 -0.09 0 -0.09 0 -0.09 0 -0.09 0 -0.09 0 -0.09 0 -0.09 0 -0.09 0 -0.09-0.01 -0.09-0.01 -0.09-0.01 -0.09-0.01 -0.09-0.01 -0.09-0.01 -0.09-0.01 -0.09-0.01 -0.09-0.02 -0.09-0.02 -0.09-0.02 -0.09-0.02 -0.09-0.02 -0.09-0.02 -0.09-0.02 -0.09-0.02 -0.09-0.02 -0.09-0.02 -0.09-0.03 -0.09-0.03 -0.08-0.03 -0.09-0.03 -0.08-0.03 -0.08-0.03 -0.08-0.03 -0.08-0.03 -0.08-0.03 -0.08-0.04 -0.08-0.04 -0.08-0.04 -0.08-0.04 -0.08-0.04 -0.08-0.04 -0.08-0.04 -0.08-0.04 -0.08-0.04 -0.08-0.04 -0.08-0.04 -0.07-0.05 -0.08-0.05 -0.08-0.05 -0.14-0.09 -0.14-0.1 -0.14-0.1 -0.14-0.11 -0.14-0.11 -0.13-0.11 -0.13-0.12 -0.13-0.12 -0.12-0.12 -0.12-0.13 -0.12-0.13 -0.12-0.13 -0.11-0.13 -0.11-0.14 -0.11-0.14 -0.1-0.14 -0.1-0.14 -0.09-0.14 -0.05-0.08 -0.05-0.07 -0.04-0.08 -0.04-0.08 -0.04-0.08 -0.04-0.08 -0.04-0.08 -0.04-0.08 -0.04-0.08 -0.04-0.08 -0.04-0.08 -0.04-0.08 -0.04-0.08 -0.04-0.08 -0.03-0.08 -0.03-0.08 -0.03-0.08 -0.03-0.08 -0.03-0.08 -0.03-0.08 -0.03-0.09 -0.03-0.09 -0.03-0.09 -0.02-0.09 -0.02-0.09 -0.02-0.09 -0.02-0.09 -0.02-0.09 -0.02-0.09 -0.02-0.09 -0.02-0.09 -0.02-0.09 -0.02-0.09 -0.01-0.09 -0.01-0.09 -0.01-0.09 -0.01-0.09 -0.01-0.09 -0.01-0.09 -0.01-0.09 -0.01-0.09 -0.01-0.09 0-0.09 0-0.09 0-0.09 0-0.09 0-0.09 0-0.09 0-0.09 0-0.09 0.01-0.09 0.01-0.09 0.01-0.09 0.01-0.09 0.01-0.09 0.01-0.09 0.01-0.09 0.01-0.09 0.02-0.09 0.02-0.09 0.02-0.09 0.02-0.09 0.02-0.09 0.02-0.09 0.02-0.09 0.02-0.09 0.02-0.09 0.02-0.09 0.03-0.09 0.03-0.09 0.03-0.09 0.03-0.08 0.03-0.09 0.03-0.08 0.03-0.08 0.03-0.08 0.03-0.08 0.03-0.08 0.04-0.08 0.04-0.08 0.04-0.08 0.04-0.08 0.04-0.08 0.04-0.08 0.04-0.08 0.04-0.08 0.04-0.08 0.04-0.08 0.05-0.08 0.05-0.07 0.05-0.08 0.05-0.08 0.09-0.14 0.1-0.14 0.1-0.14 0.11-0.14 0.11-0.14 0.11-0.13 0.12-0.13 0.12-0.13 0.12-0.12 0.13-0.12 0.13-0.12 0.13-0.12 0.14-0.11 0.14-0.11 0.14-0.11 0.14-0.1 0.14-0.1 0.14-0.09 0.08-0.05 0.08-0.05 0.08-0.04 0.08-0.04 0.08-0.04 0.08-0.04 0.08-0.04 0.08-0.04 0.08-0.04 0.08-0.04 0.08-0.04 0.08-0.04 0.08-0.04 0.08-0.04 0.08-0.03 0.08-0.03 0.08-0.03 0.08-0.03 0.08-0.03 0.09-0.03 0.09-0.03 0.09-0.03 0.09-0.03 0.09-0.02 0.09-0.02 0.09-0.02 0.09-0.02 0.09-0.02 0.09-0.02 0.09-0.02 0.09-0.02 0.09-0.02 0.09-0.02 0.09-0.01 0.09-0.01 0.09-0.01 0.09-0.01 0.09-0.01 0.09-0.01 0.09-0.01 0.09-0.01 0.09-0.01 0.09 0 0.09 0 0.09 0 0.09 0 0.1 0Zm-0.16 2.17l-0.07 0 -0.07 0 -0.07 0 -0.07 0 -0.06 0.01 -0.07 0.01 -0.06 0.01 -0.06 0.01 -0.06 0.01 -0.06 0.01 -0.06 0.01 -0.06 0.01 -0.06 0.01 -0.06 0.01 -0.06 0.01 -0.06 0.01 -0.06 0.01 -0.06 0.02 -0.06 0.02 -0.06 0.02 -0.06 0.02 -0.06 0.02 -0.06 0.02 -0.06 0.02 -0.06 0.02 -0.06 0.02 -0.06 0.02 -0.06 0.02 -0.06 0.02 -0.06 0.02 -0.06 0.02 -0.06 0.03 -0.06 0.03 -0.06 0.03 -0.06 0.03 -0.06 0.03 -0.06 0.03 -0.05 0.03 -0.05 0.03 -0.05 0.03 -0.05 0.03 -0.05 0.03 -0.05 0.03 -0.05 0.03 -0.05 0.03 -0.1 0.07 -0.1 0.07 -0.1 0.07 -0.1 0.08 -0.1 0.08 -0.09 0.08 -0.09 0.08 -0.09 0.08 -0.09 0.09 -0.09 0.09 -0.08 0.09 -0.08 0.09 -0.08 0.1 -0.08 0.1 -0.08 0.1 -0.07 0.1 -0.07 0.1 -0.07 0.1 -0.03 0.05 -0.03 0.05 -0.03 0.05 -0.03 0.05 -0.03 0.06 -0.03 0.06 -0.03 0.06 -0.03 0.06 -0.03 0.06 -0.03 0.06 -0.03 0.06 -0.03 0.06 -0.03 0.06 -0.02 0.06 -0.02 0.06 -0.02 0.06 -0.02 0.06 -0.02 0.06 -0.02 0.06 -0.02 0.06 -0.02 0.06 -0.02 0.06 -0.02 0.06 -0.02 0.06 -0.02 0.06 -0.02 0.06 -0.02 0.06 -0.01 0.06 -0.01 0.06 -0.01 0.06 -0.01 0.06 -0.01 0.06 -0.01 0.06 -0.01 0.06 -0.01 0.07 -0.01 0.06 -0.01 0.07 -0.01 0.07 -0.01 0.07 0 0.07 0 0.07 0 0.07 0 0.07 0 0.07 0 0.07 0 0.07 0 0.07 0 0.07 0 0.07 0 0.07 0 0.07 0.01 0.07 0.01 0.07 0.01 0.07 0.01 0.07 0.01 0.07 0.01 0.06 0.01 0.06 0.01 0.06 0.01 0.06 0.01 0.06 0.01 0.06 0.01 0.06 0.01 0.06 0.02 0.06 0.02 0.06 0.02 0.06 0.02 0.06 0.02 0.06 0.02 0.06 0.02 0.06 0.02 0.06 0.02 0.06 0.02 0.06 0.02 0.06 0.02 0.06 0.02 0.06 0.02 0.06 0.03 0.06 0.03 0.06 0.03 0.06 0.03 0.06 0.03 0.06 0.03 0.06 0.03 0.06 0.03 0.06 0.03 0.06 0.03 0.05 0.03 0.05 0.03 0.05 0.03 0.05 0.03 0.05 0.07 0.1 0.07 0.1 0.07 0.1 0.08 0.1 0.08 0.1 0.08 0.09 0.08 0.09 0.08 0.09 0.09 0.09 0.09 0.09 0.09 0.08 0.09 0.08 0.1 0.08 0.1 0.08 0.1 0.08 0.1 0.07 0.1 0.07 0.1 0.07 0.05 0.03 0.05 0.03 0.05 0.03 0.05 0.03 0.06 0.03 0.06 0.03 0.06 0.03 0.06 0.03 0.06 0.03 0.06 0.03 0.06 0.03 0.06 0.03 0.06 0.03 0.06 0.02 0.06 0.03 0.06 0.02 0.06 0.02 0.06 0.02 0.06 0.02 0.06 0.02 0.06 0.02 0.06 0.02 0.06 0.02 0.06 0.02 0.06 0.02 0.06 0.02 0.06 0.02 0.06 0.01 0.06 0.02 0.06 0.01 0.06 0.01 0.06 0.01 0.06 0.01 0.06 0.01 0.07 0.01 0.06 0.01 0.07 0.01 0.07 0.01 0.07 0.01 0.07 0.01 0.07 0.01 0.07 0 0.07 0 0.07 0 0.07 0 0.07 0 0.07 0 0.07 0 0.07 0 0.07 0 0.07 0 0.07 0 0.07 0 0.07-0.01 0.07-0.01 0.07-0.01 0.06-0.01 0.06-0.01 0.06-0.01 0.06-0.01 0.06-0.01 0.06-0.01 0.06-0.01 0.06-0.01 0.06-0.01 0.06-0.02 0.06-0.02 0.06-0.02 0.06-0.02 0.06-0.02 0.06-0.02 0.06-0.02 0.06-0.02 0.06-0.02 0.06-0.02 0.06-0.02 0.06-0.02 0.06-0.02 0.06-0.02 0.06-0.03 0.06-0.03 0.06-0.03 0.06-0.03 0.06-0.03 0.06-0.03 0.06-0.03 0.06-0.03 0.05-0.03 0.05-0.03 0.05-0.03 0.05-0.03 0.05-0.03 0.1-0.07 0.1-0.07 0.1-0.07 0.1-0.07 0.1-0.08 0.09-0.08 0.09-0.08 0.09-0.08 0.09-0.09 0.09-0.09 0.08-0.09 0.08-0.09 0.08-0.09 0.08-0.1 0.08-0.1 0.07-0.1 0.07-0.1 0.07-0.1 0.03-0.05 0.03-0.05 0.03-0.05 0.03-0.05 0.03-0.05 0.03-0.05 0.03-0.05 0.03-0.06 0.03-0.05 0.03-0.06 0.03-0.06 0.03-0.06 0.03-0.06 0.02-0.06 0.03-0.06 0.02-0.06 0.02-0.06 0.02-0.06 0.02-0.06 0.02-0.06 0.02-0.06 0.02-0.06 0.02-0.06 0.02-0.06 0.02-0.06 0.02-0.06 0.02-0.06 0.01-0.06 0.02-0.06 0.01-0.06 0.01-0.06 0.01-0.06 0.01-0.06 0.01-0.06 0.01-0.06 0.01-0.06 0.01-0.06 0.01-0.06 0.01-0.07 0.01-0.06 0.01-0.07 0-0.07 0-0.07 0-0.07 0-0.07 0-0.07 0-0.07 0-0.07 0-0.07 0-0.07 0-0.07 0-0.06 0-0.07 -0.01-0.06 -0.01-0.06 -0.01-0.06 -0.01-0.06 -0.01-0.06 -0.01-0.06 -0.01-0.06 -0.01-0.06 -0.01-0.06 -0.01-0.06 -0.01-0.06 -0.01-0.06 -0.02-0.06 -0.02-0.06 -0.02-0.06 -0.02-0.06 -0.02-0.06 -0.02-0.06 -0.02-0.06 -0.02-0.06 -0.02-0.06 -0.02-0.06 -0.02-0.06 -0.02-0.06 -0.02-0.06 -0.02-0.06 -0.03-0.06 -0.03-0.06 -0.03-0.06 -0.03-0.06 -0.03-0.06 -0.03-0.05 -0.03-0.05 -0.03-0.05 -0.03-0.05 -0.03-0.05 -0.03-0.05 -0.03-0.05 -0.03-0.05 -0.07-0.1 -0.07-0.1 -0.07-0.1 -0.07-0.1 -0.08-0.1 -0.08-0.09 -0.08-0.09 -0.08-0.09 -0.09-0.09 -0.09-0.09 -0.09-0.08 -0.09-0.08 -0.09-0.08 -0.1-0.08 -0.1-0.08 -0.1-0.07 -0.1-0.07 -0.1-0.07 -0.05-0.03 -0.05-0.03 -0.05-0.03 -0.05-0.03 -0.05-0.03 -0.05-0.03 -0.05-0.03 -0.06-0.03 -0.05-0.03 -0.06-0.03 -0.06-0.03 -0.06-0.03 -0.06-0.03 -0.06-0.02 -0.06-0.02 -0.06-0.02 -0.06-0.02 -0.06-0.02 -0.06-0.02 -0.06-0.02 -0.06-0.02 -0.06-0.02 -0.06-0.02 -0.06-0.02 -0.06-0.02 -0.06-0.02 -0.06-0.02 -0.06-0.01 -0.06-0.01 -0.06-0.01 -0.06-0.01 -0.06-0.01 -0.06-0.01 -0.06-0.01 -0.06-0.01 -0.06-0.01 -0.06-0.01 -0.06-0.01 -0.07-0.01 -0.06 0 -0.07 0 -0.07 0 -0.07 0 -0.07 0 -0.07 0 -0.07 0 -0.07 0Z"
          class="a"/>
</svg>
